<svg width="32" height="33" viewBox="0 0 32 33" fill="none" xmlns="http://www.w3.org/2000/svg">
<g clip-path="url(#clip0_696_3258)">
<path d="M15.9927 26.0155C19.6594 26.0155 22.6319 24.6858 22.6319 23.0454C22.6319 21.405 19.6594 20.0752 15.9927 20.0752C12.326 20.0752 9.35352 21.405 9.35352 23.0454C9.35352 24.6858 12.326 26.0155 15.9927 26.0155Z" fill="#72CDCD"/>
<path d="M15.9932 24.8927C19.3037 24.8927 21.9874 23.7756 21.9874 22.3975C21.9874 21.0194 19.3037 19.9023 15.9932 19.9023C12.6827 19.9023 9.99902 21.0194 9.99902 22.3975C9.99902 23.7756 12.6827 24.8927 15.9932 24.8927Z" fill="#034444"/>
<path d="M21.9878 20.7852H9.99902V22.3969H21.9878V20.7852Z" fill="#034444"/>
<path d="M15.9923 23.2835C19.3028 23.2835 21.9865 22.1663 21.9865 20.7882C21.9865 19.4101 19.3028 18.293 15.9923 18.293C12.6817 18.293 9.99805 19.4101 9.99805 20.7882C9.99805 22.1663 12.6817 23.2835 15.9923 23.2835Z" fill="#058888"/>
<path d="M15.9919 20.8273C20.114 20.8273 23.4555 17.6301 23.4555 13.6861C23.4555 9.74214 20.114 6.54492 15.9919 6.54492C11.8699 6.54492 8.52832 9.74214 8.52832 13.6861C8.52832 17.6301 11.8699 20.8273 15.9919 20.8273Z" fill="#034444"/>
<path d="M16.4362 20.8554C20.322 20.8554 23.472 17.8414 23.472 14.1235C23.472 10.4056 20.322 7.3916 16.4362 7.3916C12.5504 7.3916 9.40039 10.4056 9.40039 14.1235C9.40039 17.8414 12.5504 20.8554 16.4362 20.8554Z" fill="white"/>
<path d="M16.4257 20.7645C15.0535 20.7626 13.7127 20.3717 12.5727 19.6411C11.4326 18.9105 10.5445 17.873 10.0204 16.6597C9.49632 15.4464 9.35984 14.1116 9.62818 12.8241C9.89653 11.5366 10.5577 10.3541 11.5281 9.42588C12.4985 8.49771 13.7347 7.86554 15.0804 7.60924C16.4261 7.35294 17.8211 7.48401 19.089 7.98588C20.3569 8.48776 21.441 9.33792 22.2042 10.429C22.9673 11.5201 23.3754 12.803 23.3769 14.1159C23.3761 15.8794 22.6434 17.5704 21.3399 18.8172C20.0364 20.064 18.2688 20.7644 16.4257 20.7645ZM9.92072 13.9109H12.9289L13.2208 11.405C13.2257 11.4074 13.2134 11.396 13.2007 11.396C12.3545 11.3936 11.508 11.3897 10.6618 11.396C10.6268 11.4036 10.5941 11.4188 10.5662 11.4403C10.5382 11.4618 10.5157 11.4891 10.5004 11.5201C10.3894 11.7577 10.2911 12.0005 10.206 12.2476C10.0215 12.7846 9.92529 13.3457 9.92072 13.9109ZM19.649 11.3901L19.9417 13.9128H22.9495C22.9495 13.8484 22.952 13.795 22.9495 13.7427C22.9054 12.9881 22.718 12.2474 22.3965 11.557C22.38 11.5025 22.3437 11.4555 22.2942 11.4243C22.2447 11.3931 22.1851 11.3799 22.1263 11.387C21.366 11.394 20.6072 11.3901 19.8452 11.3901H19.649ZM9.91541 14.3324C9.93504 15.1765 10.1429 16.0069 10.5251 16.7679C10.5481 16.7942 10.577 16.8153 10.6095 16.8297C10.6421 16.8441 10.6776 16.8514 10.7135 16.8512C11.5166 16.8567 12.3201 16.8551 13.1231 16.8539C13.156 16.8523 13.1885 16.8475 13.2204 16.8398L12.9285 14.3312L9.91541 14.3324ZM19.6486 16.8555C20.5013 16.8555 21.3606 16.8578 22.2199 16.8496C22.2733 16.8496 22.3529 16.7734 22.3747 16.7168C22.5287 16.3558 22.6607 15.9866 22.7701 15.611C22.8752 15.1974 22.9191 14.7696 22.9914 14.3398H19.9405L19.6486 16.8555ZM13.6913 11.3999C13.4956 12.2252 13.3907 13.0678 13.3785 13.914H16.2114V11.3999H13.6913ZM19.4938 13.9164C19.4826 13.0699 19.3761 12.227 19.1764 11.4023H16.6581V13.9164H19.4938ZM16.2142 16.8465V14.3359H13.376C13.3894 15.1811 13.4961 16.0227 13.6942 16.8465H16.2142ZM19.1797 16.8465C19.3767 16.0236 19.4806 15.1828 19.4897 14.3386H16.656V16.8465H19.1797ZM22.0906 17.2644H19.5041C19.2415 18.368 18.6788 19.3856 17.8729 20.2142C18.7507 20.0271 19.5785 19.6683 20.3043 19.1603C21.0302 18.6523 21.6384 18.0062 22.0906 17.2625V17.2644ZM10.7808 17.2644C11.2328 18.0073 11.8406 18.6526 12.566 19.1596C13.2914 19.6667 14.1186 20.0245 14.9957 20.2106C14.1916 19.3826 13.6298 18.3664 13.367 17.2644H10.7808ZM17.8425 8.01412C17.9821 8.15829 18.0921 8.26318 18.1923 8.3767C18.7859 9.08696 19.2119 9.91162 19.4412 10.7942C19.4864 10.9454 19.5435 11.0016 19.7139 10.9984C20.3096 10.9874 20.9045 10.9941 21.5023 10.9941H22.0976C21.6389 10.2454 21.0245 9.59461 20.2925 9.08205C19.5605 8.56949 18.7271 8.20603 17.8425 8.01412ZM14.992 8.0589C13.6343 8.13747 11.1327 9.91029 10.828 10.9847H13.3682C13.6266 9.8881 14.187 8.87765 14.9911 8.05812L14.992 8.0589ZM16.2175 7.89902C15.9002 7.94454 15.6039 8.07842 15.3656 8.28399C14.5005 8.99658 14.1171 9.9645 13.7985 10.9827H16.2175V7.89902ZM19.0882 10.9831C18.9613 10.6414 18.8549 10.3153 18.7186 9.99907C18.4734 9.35021 18.0661 8.76857 17.5322 8.30481C17.2892 8.08972 16.9844 7.94933 16.6572 7.90178V10.9831H19.0882ZM16.2142 20.3509V17.2652H13.7965C13.8749 17.4962 13.9401 17.7126 14.0218 17.9236C14.2678 18.666 14.6986 19.34 15.2773 19.8877C15.5352 20.1259 15.8606 20.2862 16.213 20.3489L16.2142 20.3509ZM16.6527 20.3532C17.1753 20.2411 17.6365 19.9488 17.9484 19.5322C18.367 19.0161 18.6867 18.4332 18.8927 17.8105C18.9568 17.6333 19.0114 17.4534 19.0722 17.2676H16.6498L16.6527 20.3532Z" fill="#058888"/>
</g>
<defs>
<clipPath id="clip0_696_3258">
<rect y="0.280273" width="32" height="32" rx="8" fill="white"/>
</clipPath>
</defs>
</svg>
