<svg width="33" height="31" viewBox="0 0 33 31" fill="none" xmlns="http://www.w3.org/2000/svg">
<g clip-path="url(#clip0_696_3472)">
<path d="M16.598 21.695C19.9402 21.695 22.6496 20.4828 22.6496 18.9876C22.6496 17.4924 19.9402 16.2803 16.598 16.2803C13.2558 16.2803 10.5464 17.4924 10.5464 18.9876C10.5464 20.4828 13.2558 21.695 16.598 21.695Z" fill="#72CDCD"/>
<path d="M16.5981 20.6743C19.6156 20.6743 22.0619 19.6562 22.0619 18.4002C22.0619 17.1442 19.6156 16.126 16.5981 16.126C13.5805 16.126 11.1343 17.1442 11.1343 18.4002C11.1343 19.6562 13.5805 20.6743 16.5981 20.6743Z" fill="#034444"/>
<path d="M22.0619 16.9326H11.1343V18.4017H22.0619V16.9326Z" fill="#034444"/>
<path d="M16.5991 19.2036C19.6167 19.2036 22.063 18.1855 22.063 16.9295C22.063 15.6735 19.6167 14.6553 16.5991 14.6553C13.5816 14.6553 11.1353 15.6735 11.1353 16.9295C11.1353 18.1855 13.5816 19.2036 16.5991 19.2036Z" fill="#058888"/>
<path d="M14.552 14.4142L9.46045 11.5034L14.3176 8.04102L14.8847 8.76908L11.1655 11.4203L15.0386 13.6343L14.552 14.4142Z" fill="#72CDCD"/>
<path d="M19.4311 14.7006L18.8621 13.8584L23.0456 11.2707L18.8335 8.48407L19.4296 7.65918L24.9306 11.2984L19.4311 14.7006Z" fill="#72CDCD"/>
<path d="M18.8335 8.48438L18.853 9.53578L22.2776 11.7455L23.0445 11.2709L18.8335 8.48438Z" fill="#058888"/>
<path d="M14.3171 8.04102L13.3586 8.05722L8.20947 11.5243L9.45998 11.5031L14.3171 8.04102Z" fill="#034444"/>
<path d="M8.20947 11.5271L13.362 14.4775L14.5516 14.4167L9.45998 11.5059L8.20947 11.5271Z" fill="#058888"/>
<path d="M21.7963 11.434L19.1297 12.9358L18.8618 13.8583L23.0453 11.2705L21.7963 11.434Z" fill="#034444"/>
<path d="M17.4104 6.86914L15.5063 15.435L16.4345 15.6239L18.3386 7.05802L17.4104 6.86914Z" fill="#058888"/>
<path d="M17.4065 6.86523L16.8834 7.12627L14.9077 15.7751L15.5064 15.4326L17.4065 6.86523Z" fill="#034444"/>
<path d="M14.9077 15.777L15.8861 15.9675L16.4344 15.6233L15.506 15.4346L14.9077 15.777Z" fill="#058888"/>
</g>
<defs>
<clipPath id="clip0_696_3472">
<rect x="0.569824" y="-1.71973" width="32" height="32" rx="8" fill="white"/>
</clipPath>
</defs>
</svg>
