<svg width="150" height="37" viewBox="0 0 150 37" fill="none" xmlns="http://www.w3.org/2000/svg">
<g id="image1_layerstyle-31-HubSpotBlogNavigation-31-divbody-container-wrapper">
<g id="Group-31-image1_layerstyle-31-HubSpotBlogNavigation-31-divbody-container-wrapper">
<path id="Vector-31-Group-31-image1_layerstyle-31-HubSpotBlogNavigation-31-divbody-container-wrapper" fill-rule="evenodd" clip-rule="evenodd" d="M16.788 0.0461648L20.5795 0L29.1335 18.0043C33.8497 27.9297 37.595 36.147 37.4563 36.2394C37.3176 36.3779 36.3928 36.147 35.3756 35.7777C34.3584 35.4084 31.5379 34.7621 29.1335 34.4389C26.7291 34.0696 22.1054 33.7465 18.8687 33.7465C15.5858 33.7465 11.332 33.9773 9.38999 34.2543C7.40177 34.4851 4.53503 35.0391 3.00918 35.4084C1.48334 35.7777 0.142446 35.9624 0.00373256 35.8239C-0.134981 35.6854 3.61028 27.6066 8.28028 17.8196L16.788 0.0461648ZM15.2622 19.4354C13.9213 22.3438 12.6729 25.1598 12.4879 25.6676C12.118 26.5909 12.303 26.5909 18.7762 26.5909C23.0301 26.5909 25.3882 26.4063 25.2495 26.1293C25.1571 25.8985 23.7699 22.7592 22.1516 19.2046C20.5795 15.6499 19.1461 12.5568 19.0074 12.326C18.8225 12.0952 18.4526 12.4183 18.1752 13.0185C17.8977 13.6186 16.5568 16.527 15.2622 19.4354ZM60.1128 1.20028L65.7075 13.434C68.7592 20.174 71.4873 26.1293 71.7184 26.7294C72.1346 27.6989 72.0421 27.745 66.9559 27.5142L62.4709 17.635C60.0203 12.1875 57.8009 7.66336 57.5697 7.57103C57.2923 7.4787 55.9976 9.87927 54.6567 12.8338C53.3158 15.8345 52.3448 18.3736 52.5298 18.5121C52.6685 18.6506 54.2406 18.8352 59.2342 19.2046L61.0375 23.1286H55.8127C52.9459 23.1286 50.4028 23.3132 50.1717 23.4979C49.8942 23.6825 49.2469 24.6982 48.7845 25.8061C47.8598 27.7451 47.8598 27.7912 45.4092 27.7451C44.0683 27.7451 43.0048 27.6527 43.0048 27.5142C43.0048 27.3757 45.5016 21.7436 48.5996 14.9574C51.6513 8.12501 54.3793 2.21591 54.6567 1.75426C55.0266 1.10796 55.5815 0.969461 60.1128 1.20028ZM111.437 0.969461H116.06V5.58594H111.437V0.969461ZM101.311 8.44816C102.282 8.63282 103.715 9.14063 104.501 9.50995C105.241 9.87927 106.397 10.8949 106.998 11.7259C107.599 12.5107 108.385 13.8494 108.662 14.5881C108.94 15.3729 109.217 17.1271 109.217 18.5121C109.217 20.174 108.894 21.6975 108.292 22.8977C107.784 23.9134 106.674 25.3906 105.842 26.1754C104.871 27.0064 103.345 27.7912 101.958 28.1144C100.663 28.3914 98.8137 28.4837 97.8428 28.299C96.8255 28.1144 95.947 27.7912 95.8545 27.5142C95.7158 27.2834 95.9932 26.2678 96.3631 25.3445C97.0567 23.6825 97.1954 23.5902 99.1836 23.6825C101.033 23.7287 101.496 23.5441 102.883 22.1591C103.761 21.282 104.547 20.0817 104.64 19.4354C104.778 18.7891 104.64 17.5888 104.455 16.804C104.224 15.973 103.391 14.7727 102.651 14.1264C101.634 13.2955 100.709 12.9723 99.1836 12.9723C97.6578 12.9723 96.733 13.2955 95.7158 14.1264C94.9298 14.7727 97.2312 19.5277 97 20.4972C96.7226 21.4205 93.4039 22.5284 93.4039 35.5931H88.7802L89.0113 8.58665L90.6297 8.44816C91.7394 8.30967 92.5254 8.54049 93.0803 9.14063C93.8201 9.87927 94.0512 9.87927 94.9298 9.37146C95.4846 9.00214 96.733 8.58666 97.704 8.402C98.675 8.21734 100.293 8.2635 101.311 8.44816ZM78.9315 8.402C80.2724 8.35583 82.0294 8.63282 82.8617 9.00214C83.694 9.37146 84.8037 9.9716 85.3123 10.3409C86.2371 11.0796 86.1908 11.1257 84.7112 12.603C83.1854 14.1264 83.1854 14.1264 81.8445 13.3416C81.0585 12.88 79.8563 12.5107 79.1627 12.5107C78.4691 12.4645 77.6369 12.7877 77.3132 13.2031C76.9895 13.5725 76.8508 14.2188 76.9895 14.5881C77.1282 14.9574 78.0992 15.5114 79.1627 15.7884C80.2724 16.0654 81.937 16.7117 82.8617 17.1733C83.8327 17.6811 85.0349 18.6967 85.5435 19.4354C86.0521 20.2202 86.4683 21.559 86.4683 22.4361C86.4683 23.3132 86.1908 24.6058 85.8209 25.3445C85.4973 26.037 84.6188 27.0064 83.8789 27.5142C83.0004 28.0682 81.752 28.3914 80.2262 28.3914C78.9315 28.3914 76.9895 28.0682 75.8336 27.6527C74.6776 27.2372 73.4292 26.5448 73.0593 26.1293C72.412 25.483 72.5045 25.2521 75.325 22.4361L76.8508 23.2671C77.7756 23.7749 79.024 24.0519 79.995 23.9595C81.2896 23.8672 81.6133 23.5902 81.7058 22.8054C81.7982 21.8821 81.3821 21.559 78.4691 20.4972C76.4347 19.7585 74.4927 18.6506 73.5217 17.6811C71.9959 16.2038 71.9034 15.9269 72.1346 13.8956C72.2733 12.5107 72.7357 11.218 73.4292 10.4332C74.0303 9.69461 75.0013 9.00214 75.5099 8.77131C76.0648 8.58665 77.5906 8.402 78.9315 8.402ZM121.285 8.72515C122.349 8.86364 123.32 9.14063 123.458 9.37146C123.597 9.64844 124.337 9.50995 125.169 9.09447C126.002 8.67898 127.204 8.35583 127.851 8.35583C128.915 8.35583 129.007 8.54049 129.007 10.4332C129.007 12.4183 128.914 12.5568 127.019 13.3416C125.632 13.9418 124.846 14.6804 124.244 15.8807C123.643 17.1733 123.458 18.7891 123.458 27.7451H118.835L118.742 18.3736C118.696 13.2031 118.835 8.86364 118.973 8.72515C119.158 8.58665 120.176 8.58665 121.285 8.72515ZM139.41 8.402C140.936 8.402 142.693 8.67899 143.341 9.0483C144.312 9.60228 144.589 9.55612 145.19 9.00214C145.653 8.54049 146.531 8.35583 149.583 8.58665L149.814 27.7451H145.19V16.2038L143.572 14.5881C142.277 13.2955 141.584 12.9723 140.104 12.9723C139.087 12.9723 137.607 13.2955 136.867 13.6648C136.081 14.0803 135.157 15.0497 134.787 15.973C134.417 16.8502 134.093 18.0504 134.093 18.6506C134.093 19.2046 134.509 20.3587 135.018 21.1896C135.526 22.0206 136.729 22.9901 137.653 23.4056C138.671 23.821 139.919 24.0057 140.566 23.821C141.584 23.5441 141.815 23.7749 142.555 25.5291C142.971 26.6371 143.294 27.5604 143.248 27.6527C143.156 27.6989 142.277 27.9297 141.26 28.2067C140.058 28.4837 138.671 28.4375 137.33 28.1605C136.174 27.9297 134.509 27.1911 133.631 26.5909C132.752 25.9908 131.55 24.6982 130.995 23.7287C130.44 22.7593 129.839 21.0512 129.654 19.897C129.469 18.6967 129.562 16.9425 129.839 15.7422C130.163 14.5881 131.088 12.8338 131.92 11.8182C132.798 10.8026 134.186 9.60228 135.064 9.1868C136.035 8.67898 137.7 8.402 139.41 8.402ZM111.437 8.81748H116.06V27.7451H111.437V8.81748Z" fill="#F15A24"/>
</g>
</g>
</svg>
