<svg width="29" height="29" viewBox="0 0 29 29" fill="none" xmlns="http://www.w3.org/2000/svg">
<circle cx="14.5" cy="14.4658" r="14" fill="#FF6D34"/>
<path d="M19.4 9.33216H18V8.69049C18 8.52031 17.9263 8.3571 17.795 8.23677C17.6637 8.11643 17.4857 8.04883 17.3 8.04883C17.1143 8.04883 16.9363 8.11643 16.805 8.23677C16.6737 8.3571 16.6 8.52031 16.6 8.69049V9.33216H12.4V8.69049C12.4 8.52031 12.3263 8.3571 12.195 8.23677C12.0637 8.11643 11.8857 8.04883 11.7 8.04883C11.5143 8.04883 11.3363 8.11643 11.205 8.23677C11.0737 8.3571 11 8.52031 11 8.69049V9.33216H9.6C9.04305 9.33216 8.5089 9.53497 8.11508 9.89598C7.72125 10.257 7.5 10.7466 7.5 11.2572V18.9572C7.5 19.4677 7.72125 19.9573 8.11508 20.3183C8.5089 20.6793 9.04305 20.8822 9.6 20.8822H19.4C19.957 20.8822 20.4911 20.6793 20.8849 20.3183C21.2788 19.9573 21.5 19.4677 21.5 18.9572V11.2572C21.5 10.7466 21.2788 10.257 20.8849 9.89598C20.4911 9.53497 19.957 9.33216 19.4 9.33216ZM20.1 18.9572C20.1 19.1273 20.0263 19.2906 19.895 19.4109C19.7637 19.5312 19.5857 19.5988 19.4 19.5988H9.6C9.41435 19.5988 9.2363 19.5312 9.10503 19.4109C8.97375 19.2906 8.9 19.1273 8.9 18.9572V14.4655H20.1V18.9572ZM20.1 13.1822H8.9V11.2572C8.9 11.087 8.97375 10.9238 9.10503 10.8034C9.2363 10.6831 9.41435 10.6155 9.6 10.6155H11V11.2572C11 11.4273 11.0737 11.5906 11.205 11.7109C11.3363 11.8312 11.5143 11.8988 11.7 11.8988C11.8857 11.8988 12.0637 11.8312 12.195 11.7109C12.3263 11.5906 12.4 11.4273 12.4 11.2572V10.6155H16.6V11.2572C16.6 11.4273 16.6737 11.5906 16.805 11.7109C16.9363 11.8312 17.1143 11.8988 17.3 11.8988C17.4857 11.8988 17.6637 11.8312 17.795 11.7109C17.9263 11.5906 18 11.4273 18 11.2572V10.6155H19.4C19.5857 10.6155 19.7637 10.6831 19.895 10.8034C20.0263 10.9238 20.1 11.087 20.1 11.2572V13.1822Z" fill="white"/>
</svg>
