<svg width="17" height="18" viewBox="0 0 17 18" fill="none" xmlns="http://www.w3.org/2000/svg">
<path d="M5.97401 1.79948V0.132812H11.0296V1.79948H5.97401ZM7.6592 10.9661H9.34438V5.96615H7.6592V10.9661ZM8.50179 17.6328C7.46259 17.6328 6.48294 17.4348 5.56283 17.0386C4.64272 16.6425 3.83888 16.1045 3.15133 15.4245C2.46321 14.7439 1.9189 13.9486 1.51838 13.0386C1.11787 12.1286 0.917896 11.16 0.918458 10.1328C0.918458 9.10503 1.11871 8.13615 1.51923 7.22615C1.91974 6.31615 2.46377 5.52115 3.15133 4.84115C3.83945 4.16059 4.64356 3.62226 5.56367 3.22615C6.48378 2.83003 7.46316 2.63226 8.50179 2.63281C9.37247 2.63281 10.208 2.7717 11.0085 3.04948C11.809 3.32726 12.5603 3.73003 13.2624 4.25781L14.4421 3.09115L15.6217 4.25781L14.4421 5.42448C14.9757 6.11892 15.383 6.86198 15.6638 7.65364C15.9447 8.44531 16.0851 9.2717 16.0851 10.1328C16.0851 11.1606 15.8849 12.1295 15.4844 13.0395C15.0838 13.9495 14.5398 14.7445 13.8523 15.4245C13.1641 16.105 12.36 16.6434 11.4399 17.0395C10.5198 17.4356 9.54043 17.6334 8.50179 17.6328ZM8.50179 15.9661C10.1308 15.9661 11.5211 15.3967 12.6726 14.2578C13.8242 13.1189 14.3999 11.7439 14.3999 10.1328C14.3999 8.5217 13.8242 7.1467 12.6726 6.00781C11.5211 4.86892 10.1308 4.29948 8.50179 4.29948C6.87278 4.29948 5.4825 4.86892 4.33096 6.00781C3.17942 7.1467 2.60364 8.5217 2.60364 10.1328C2.60364 11.7439 3.17942 13.1189 4.33096 14.2578C5.4825 15.3967 6.87278 15.9661 8.50179 15.9661Z" fill="white"/>
</svg>
