<svg width="33" height="33" viewBox="0 0 33 33" fill="none" xmlns="http://www.w3.org/2000/svg">
<g clip-path="url(#clip0_696_3290)">
<path d="M16.9503 25.713C20.5629 25.713 23.4914 24.4029 23.4914 22.7867C23.4914 21.1705 20.5629 19.8604 16.9503 19.8604C13.3377 19.8604 10.4092 21.1705 10.4092 22.7867C10.4092 24.4029 13.3377 25.713 16.9503 25.713Z" fill="#72CDCD"/>
<path d="M16.9507 24.6126C20.2124 24.6126 22.8565 23.512 22.8565 22.1544C22.8565 20.7969 20.2124 19.6963 16.9507 19.6963C13.689 19.6963 11.0449 20.7969 11.0449 22.1544C11.0449 23.512 13.689 24.6126 16.9507 24.6126Z" fill="#034444"/>
<path d="M22.8565 20.5645H11.0449V22.1524H22.8565V20.5645Z" fill="#034444"/>
<path d="M16.9507 23.0247C20.2124 23.0247 22.8565 21.9241 22.8565 20.5665C22.8565 19.209 20.2124 18.1084 16.9507 18.1084C13.689 18.1084 11.0449 19.209 11.0449 20.5665C11.0449 21.9241 13.689 23.0247 16.9507 23.0247Z" fill="#058888"/>
<path d="M20.63 6.84766H13.5223C12.8099 6.84766 12.2324 7.4002 12.2324 8.08178V18.646C12.2324 19.3276 12.8099 19.8801 13.5223 19.8801H20.63C21.3424 19.8801 21.9198 19.3276 21.9198 18.646V8.08178C21.9198 7.4002 21.3424 6.84766 20.63 6.84766Z" fill="#72CDCD"/>
<path d="M20.63 20.966H13.5227C13.1805 20.966 12.8524 20.836 12.6105 20.6046C12.3685 20.3732 12.2325 20.0593 12.2324 19.7319V9.1681C12.2324 8.84069 12.3684 8.52668 12.6103 8.29517C12.8523 8.06365 13.1805 7.93359 13.5227 7.93359H20.63C20.9722 7.93359 21.3004 8.06365 21.5423 8.29517C21.7843 8.52668 21.9203 8.84069 21.9203 9.1681V19.7319C21.9202 20.0593 21.7842 20.3732 21.5422 20.6046C21.3002 20.836 20.9721 20.966 20.63 20.966Z" fill="#034444"/>
<path d="M19.322 18.5312C19.3266 18.399 19.2778 18.2702 19.1856 18.1715C19.0935 18.0729 18.9652 18.012 18.8274 18.0015C18.8026 17.9992 18.7778 17.9977 18.753 17.9965L18.7123 17.9942C18.4126 17.98 18.1306 17.854 17.9269 17.6432C17.7232 17.4325 17.6139 17.1537 17.6226 16.8667V16.6001V16.4117H17.9118C17.9956 16.414 18.0788 16.3976 18.1548 16.3638C18.2308 16.3301 18.2976 16.2798 18.3498 16.2171C18.4133 16.1411 18.4532 16.0495 18.4648 15.9528C18.4764 15.8561 18.4593 15.7582 18.4154 15.6704C18.3716 15.5825 18.3027 15.5083 18.2168 15.4562C18.1309 15.4041 18.0314 15.3762 17.9297 15.3757C17.8268 15.3737 17.7263 15.3757 17.6213 15.3757V15.0896C17.6213 14.2097 17.6177 12.5724 17.6213 11.987C17.622 11.9101 17.6315 11.8335 17.6498 11.7586C17.71 11.5167 17.8527 11.301 18.0553 11.1455C18.258 10.99 18.5091 10.9036 18.7688 10.9C18.8411 10.9012 18.9129 10.8885 18.9799 10.8626C19.047 10.8366 19.1078 10.7981 19.1589 10.7491C19.21 10.7002 19.2503 10.6419 19.2774 10.5778C19.3044 10.5136 19.3176 10.4449 19.3163 10.3758C19.3157 10.3082 19.3011 10.2414 19.2731 10.1794C19.2452 10.1174 19.2046 10.0613 19.1536 10.0146L19.1512 10.0122C19.0953 9.96356 19.0299 9.92593 18.9588 9.90149C18.8877 9.87704 18.8122 9.86627 18.7367 9.86979C18.5327 10.1059 18.2767 10.2961 17.9871 10.4268C17.6975 10.5575 17.3813 10.6254 17.0611 10.6257C16.7409 10.6261 16.4245 10.5588 16.1346 10.4287C15.8447 10.2987 15.5883 10.109 15.3837 9.87329C15.2521 9.86998 15.1238 9.9134 15.0236 9.99517C14.9235 10.0769 14.8585 10.1913 14.8411 10.3162C14.8238 10.4348 14.8502 10.5554 14.9157 10.6574C14.9813 10.7594 15.0819 10.8364 15.2003 10.8751C15.2652 10.8931 15.3321 10.9033 15.3996 10.9054H15.422C15.5733 10.9096 15.7224 10.9424 15.8605 11.002C15.9985 11.0615 16.1229 11.1466 16.2265 11.2523C16.33 11.3581 16.4106 11.4824 16.4637 11.6181C16.5168 11.7538 16.5412 11.8982 16.5357 12.0431C16.5357 12.5459 16.5381 13.8937 16.5394 14.7853V15.3749C16.4316 15.3749 16.3282 15.3749 16.2225 15.3776C16.0825 15.3812 15.9495 15.4366 15.8513 15.532C15.7531 15.6275 15.6975 15.7557 15.696 15.8896C15.6945 16.0235 15.7474 16.1528 15.8434 16.2502C15.9395 16.3477 16.0713 16.4057 16.2111 16.4121C16.2624 16.4152 16.3099 16.4144 16.3563 16.414H16.5406V16.6441C16.5406 16.6908 16.5406 16.7729 16.5406 16.9165C16.5399 16.9926 16.5304 17.0685 16.5121 17.1426C16.4574 17.3841 16.3182 17.6005 16.1177 17.7561C15.9172 17.9118 15.6672 17.9974 15.409 17.9988C15.3342 17.9978 15.2599 18.0112 15.1907 18.0382C15.1215 18.0653 15.0588 18.1055 15.0062 18.1564C14.9537 18.2073 14.9124 18.2679 14.885 18.3344C14.8575 18.401 14.8444 18.4722 14.8464 18.5437C14.8512 18.6746 14.9096 18.7985 15.0091 18.8885C15.0707 18.9405 15.1426 18.98 15.2205 19.0048C15.2985 19.0295 15.3808 19.0389 15.4626 19.0325C15.6631 18.7968 15.9159 18.6067 16.2026 18.4761C16.4894 18.3454 16.803 18.2775 17.1206 18.2772C17.4382 18.277 17.7519 18.3444 18.0389 18.4745C18.3258 18.6047 18.5789 18.7944 18.7798 19.0298C18.9203 19.031 19.0558 18.9795 19.1571 18.8863C19.2585 18.7931 19.3176 18.6657 19.322 18.5312Z" fill="white"/>
</g>
<defs>
<clipPath id="clip0_696_3290">
<rect x="0.950195" y="0.280273" width="32" height="32" rx="8" fill="white"/>
</clipPath>
</defs>
</svg>
